<svg width="80" height="126" viewBox="0 0 80 126" fill="none" xmlns="http://www.w3.org/2000/svg">
<path d="M41.6394 0C43.8629 3.68572 46.9877 14.1219 41.3389 26.6213C38.2787 33.7067 33.0811 40.3516 26.6762 47.1131C19.1203 55.0898 11.5327 60.9346 3.60034 75.2368C1.09646 79.9241 -2.58926 92.2793 2.69895 104.202C9.30921 119.105 25.4123 124.881 34.875 125.062C44.625 125.25 55.9916 124.518 64.2345 115.379C72.75 105.938 72.8879 101.738 73.8494 91.5221C74.0625 87 73.3206 78.9025 72.6475 78.9025H44.584L32.385 93.9859H55.1003C54.1989 98.8935 49.5116 108.805 37.9737 109.19C23.5513 109.67 17.6622 95.0676 18.5636 89.6592C19.465 84.2508 19.9457 81.9072 27.6377 73.4941C35.3296 65.081 46.6271 55.5262 49.6919 50.4784C52.7567 45.4305 56.7228 41.2841 57.6242 29.7462C58.5256 18.2083 49.0309 4.80746 41.6394 0Z" fill="white"/>
<path d="M44.584 69.2876C49.2112 64.7605 62.4375 50.25 63.75 47.4375C66.1938 43.7518 70.364 33.6763 67.7199 23.196C71.6059 26.6213 79.402 36.6689 79.4982 49.4568C79.5583 52.9622 78.1521 61.836 72.0466 69.2876H44.584Z" fill="white"/>
<path d="M44.584 69.2876C49.2112 64.7605 62.4375 50.25 63.75 47.4375C66.1938 43.7518 70.364 33.6763 67.7199 23.196C71.6059 26.6213 79.402 36.6689 79.4982 49.4568C79.5583 52.9622 78.1521 61.836 72.0466 69.2876H44.584Z" fill="#FF9D00"/>
</svg>
